<svg width="34" height="31" viewBox="0 0 34 31" fill="none" xmlns="http://www.w3.org/2000/svg">
<path d="M30.3333 7.16667H23.6666V3.83333L20.3333 0.5H13.6666L10.3333 3.83333V7.16667H3.66659C1.83325 7.16667 0.333252 8.66667 0.333252 10.5V18.8333C0.333252 20.0833 0.999919 21.1333 1.99992 21.7167V27.1667C1.99992 29.0167 3.48325 30.5 5.33325 30.5H28.6666C30.5166 30.5 31.9999 29.0167 31.9999 27.1667V21.7C32.9833 21.1167 33.6666 20.05 33.6666 18.8333V10.5C33.6666 8.66667 32.1666 7.16667 30.3333 7.16667ZM13.6666 3.83333H20.3333V7.16667H13.6666V3.83333ZM3.66659 10.5H30.3333V18.8333H21.9999V13.8333H11.9999V18.8333H3.66659V10.5ZM18.6666 20.5H15.3333V17.1667H18.6666V20.5ZM28.6666 27.1667H5.33325V22.1667H11.9999V23.8333H21.9999V22.1667H28.6666V27.1667Z" fill="white"/>
</svg>
