<svg width="22" height="23" viewBox="0 0 22 23" fill="none" xmlns="http://www.w3.org/2000/svg">
<path d="M20.2868 0.918357C19.9041 0.705444 19.4833 0.570045 19.0483 0.519903C18.6133 0.46976 18.1727 0.505857 17.7517 0.626131C17.3306 0.746404 16.9374 0.948494 16.5946 1.22084C16.2517 1.49319 15.9659 1.83046 15.7534 2.21336L9.56511 13.35L6.02344 9.80836C5.71595 9.48999 5.34814 9.23605 4.94146 9.06135C4.53478 8.88666 4.09738 8.7947 3.65478 8.79086C3.21218 8.78701 2.77325 8.87135 2.36359 9.03895C1.95394 9.20656 1.58177 9.45407 1.26879 9.76704C0.955816 10.08 0.708305 10.4522 0.540702 10.8618C0.373099 11.2715 0.28876 11.7104 0.292606 12.153C0.296452 12.5956 0.388407 13.033 0.563103 13.4397C0.7378 13.8464 0.99174 14.2142 1.31011 14.5217L7.97677 21.1884C8.60677 21.82 9.45677 22.1667 10.3334 22.1667L10.7951 22.1334C11.306 22.0619 11.7934 21.8728 12.2188 21.581C12.6442 21.2892 12.9961 20.9026 13.2468 20.4517L21.5801 5.45169C21.7929 5.06911 21.9282 4.64837 21.9783 4.21349C22.0285 3.77861 21.9925 3.33811 21.8724 2.91715C21.7523 2.49619 21.5504 2.103 21.2784 1.76005C21.0063 1.41709 20.6694 1.13109 20.2868 0.918357Z" fill="white"/>
</svg>
