<svg width="168" height="33" viewBox="0 0 168 33" fill="none" xmlns="http://www.w3.org/2000/svg">
<path d="M0 0.3653V32.4115H11.1676C11.1676 30.1634 10.2375 25.1875 11.9462 23.4789C13.3215 22.1038 16.2076 22.8161 17.9653 22.5544C20.9631 22.1077 23.6113 20.3903 25.2631 17.8431C28.928 12.1918 26.8829 3.94962 20.3931 1.40438C14.3951 -0.947528 6.33258 0.3653 0 0.3653Z" fill="white"/>
<path d="M87.884 6.19197V26.585H92.2539V20.2729C98.5408 20.2685 106.06 13.7991 99.4726 7.78409C96.3005 4.88779 91.6878 6.02883 87.884 6.19197Z" fill="white"/>
<path d="M104.879 6.19179V26.5849H109.734V17.3594H110.22C112.109 22.5514 114.165 26.5844 119.931 26.5849C119.177 24.0241 116.909 21.8605 116.401 19.3016C115.977 17.1657 118.341 15.2371 118.451 12.9895C118.836 5.06143 110.221 5.96261 104.879 6.19179Z" fill="white"/>
<path d="M34.4741 6.19189V26.585H46.6128V22.7006H38.8441V17.8451H45.1562V13.9607H38.8441V10.0763H45.6417L46.6128 6.19189H34.4741Z" fill="white"/>
<path d="M52.4396 9.59074C54.1123 10.8139 53.1689 12.6988 52.5998 14.4462C51.3049 18.4253 49.6521 22.4306 49.0408 26.585H53.4107C54.241 21.3755 60.8347 21.3755 61.665 26.585H66.5205C65.2149 20.9409 63.6592 12.1355 60.423 7.3174C58.2191 4.03606 53.2917 6.75465 52.4396 9.59074ZM67.4916 9.59074H69.4338V26.585H73.8038V6.1919C70.5899 6.19238 68.5894 6.19287 67.4916 9.59074Z" fill="white"/>
<path d="M85.4567 26.585L80.0244 15.9029L84.4856 6.19189C71.8293 6.19335 73.1349 26.585 85.4567 26.585Z" fill="white"/>
<path d="M122.844 6.19189V26.585H127.214V6.19189H122.844ZM132.07 6.19189L131.584 26.585H135.468L135.954 14.9318H136.439C139.25 23.1866 143.699 23.8926 146.15 14.9318H146.636L147.122 26.585H151.492L150.52 6.19189H145.665L141.295 16.874C139.403 11.2824 138.623 6.19237 132.07 6.19189Z" fill="white"/>
<path d="M155.861 6.19189V26.585H168V22.7006H160.231V17.8451H166.057V13.9607H160.231V10.0763C164.025 10.0763 166.843 10.6352 167.514 6.19189H155.861Z" fill="white"/>
<path d="M92.7397 10.0764L92.2542 16.3885C97.2515 16.1147 98.0967 10.3726 92.7397 10.0764Z" fill="#FAFCFF"/>
<path d="M109.734 10.0764V16.8741C113.684 15.1305 115.267 10.3804 109.734 10.0764Z" fill="#FAFCFF"/>
</svg>
